# xmcd CD database file
#
# Track frame offsets:
#	150
#	39406
#	60488
#	88836
#	116190
#	137835
#	160527
#	167779
#	190689
#
# Disc length: 3011 seconds
#
# Revision: 1
# Processed by: cddbd v1.5.2PL0 Copyright (c) Steve Scherf et al.
# Submitted via: CDex 1.70beta2
#
DISCID=720bc109
DTITLE=Aki Rissanen - Amorandom
DYEAR=2016
DGENRE=Jazz
TTITLE0=Pulsar
TTITLE1=For Rainbows
TTITLE2=Paysages pas sages
TTITLE3=Aleatoric
TTITLE4=Signettes
TTITLE5=For Jimmy Giuffre
TTITLE6=Eye-opener
TTITLE7=Bird Vision
TTITLE8=Amorandom
EXTD=YEAR: 2016
EXTT0=
EXTT1=
EXTT2=
EXTT3=
EXTT4=
EXTT5=
EXTT6=
EXTT7=
EXTT8=
PLAYORDER=
